General
Complete name                    : Top Gun.mkv
Format                           : Matroska
File size                        : 1.34 GiB
Duration                         : 1h 45mn
Overall bit rate                 : 1 820 Kbps


Video
ID                               : 1
Format                           : AVC
Duration                         : 1h 45mn
Bit rate                         : 1 400 Kbps
Width                            : 718 pixels
Height                           : 516 pixels
Display aspect ratio             : 1.979
Resolution                       : 8 bits
Colorimetry                      : 4:2:0
Scan type                        : Progressive
Bits/(Pixel*Frame)               : 0.151
Stream size                      : 1.03 GiB (77%)
Writing library                  : x264 core 79

Audio
ID                               : 2
Format                           : AC-3
Format/Info                      : Audio Coding 3
Codec ID                         : A_AC3
Duration                         : 1h 45mn
Bit rate mode                    : Constant
Bit rate                         : 384 Kbps
Channel(s)                       : 6 channels
Channel positions                : Front: L C R, Side: L R, LFE
Sampling rate                    : 48.0 KHz
Stream size                      : 289 MiB (21%)
Language                         : English

Text #1
Language                         : English

Text #2
Language                         : Bulgarian

Text #3
Language                         : Danish

Text #4
Language                         : German

Text #5
Language                         : Greek

Text #6
Language                         : Finnish

Text #7
Language                         : French

Text #8
Language                         : Croatian

Text #9
Language                         : Hungarian

Text #10
Language                         : Icelandic

Text #11
Language                         : Dutch

Text #12
Language                         : Norwegian

Text #13
Language                         : Portuguese

Text #14
Language                         : Swedish

Text #15
Language                         : Turkish

Text #16
Language                         : Spanish

Text #17
Language                         : Italian

Menu
00:00:00.000                     : Chapter 1

